Coordinates
version=1
nRows=8
nColumns=63
inDegrees=yes

Units are S.I. units (second, meters, Newtons, ...)
If the header above contains a line with 'inDegrees', this indicates whether rotational values are in degrees (yes) or radians (no).

endheader
time	pelvis_tilt	pelvis_list	pelvis_rotation	pelvis_tx	pelvis_ty	pelvis_tz	hip_flexion_r	hip_adduction_r	hip_rotation_r	knee_angle_r	knee_angle_r_beta	ankle_angle_r	subtalar_angle_r	mtp_angle_r	hip_flexion_l	hip_adduction_l	hip_rotation_l	knee_angle_l	knee_angle_l_beta	ankle_angle_l	subtalar_angle_l	mtp_angle_l	L5_S1_Flex_Ext	L5_S1_Lat_Bending	L5_S1_axial_rotation	L4_L5_Flex_Ext	L4_L5_Lat_Bending	L4_L5_axial_rotation	L3_L4_Flex_Ext	L3_L4_Lat_Bending	L3_L4_axial_rotation	L2_L3_Flex_Ext	L2_L3_Lat_Bending	L2_L3_axial_rotation	L1_L2_Flex_Ext	L1_L2_Lat_Bending	L1_L2_axial_rotation	L1_T12_Flex_Ext	L1_T12_Lat_Bending	L1_T12_axial_rotation	Abs_r3	Abs_r2	Abs_r1	Abs_t1	Abs_t2	neck_flexion	neck_bending	neck_rotation	arm_flex_r	arm_add_r	arm_rot_r	elbow_flex_r	pro_sup_r	wrist_flex_r	wrist_dev_r	arm_flex_l	arm_add_l	arm_rot_l	elbow_flex_l	pro_sup_l	wrist_flex_l	wrist_dev_l
      2.16949153	     -3.51426177	    -21.02088244	     92.98893283	      0.08349612	      0.89449231	      0.57701710	     31.07248199	     -0.22688914	      6.75827890	     22.16227143	      0.38680461	     36.18312860	     -6.55463502	      0.00000000	     22.90557248	      2.16796393	    -17.50336066	      9.08013357	      0.15847823	     36.09917097	     13.86306920	      0.00000000	      0.70016771	     -0.84447422	      2.63170017	      1.30028146	     -1.12315072	      2.79618143	      1.15030553	     -2.05325463	      2.79618143	      0.80022168	     -2.05325463	      2.30273765	      0.65017574	     -1.72205184	      2.13825639	      0.40007583	     -1.30809057	      1.97377513	      5.00122795	     -9.55286131	     14.63672683	      0.00000000	      0.00000000	     28.40533832	    -13.71713540	    -21.53838337	     32.76627687	    -12.97053597	     39.82708899	     33.10133108	     87.58672895	    -15.42128766	      2.79889470	     44.24340504	     -1.85888091	     99.28898293	     16.95487365	     85.08312977	    -20.79941896	      1.08438095
      2.18644068	     -3.11780458	    -21.59687911	     93.66975573	      0.08203628	      0.89323821	      0.57695444	     31.63776141	     -0.19926341	      6.44997323	     22.07976766	      0.38536464	     36.23565006	     -6.97528977	      0.00000000	     23.71047103	      2.02129699	    -17.21399015	      9.47018200	      0.16528586	     36.50320458	     14.07179184	      0.00000000	      0.74174906	     -0.79811478	      2.52523052	      1.37750218	     -1.06149266	      2.68305743	      1.21861953	     -1.94053628	      2.68305743	      0.84774500	     -1.94053628	      2.20957671	      0.68878818	     -1.62751566	      2.05174980	      0.42383541	     -1.23627980	      1.89392289	      5.29823938	     -9.02843404	     14.04457458	      0.00000000	      0.00000000	     28.42342731	    -13.87418285	    -20.68114251	     33.97057210	    -12.71964418	     41.13675527	     31.30997525	     87.30843562	    -16.11559745	      2.15065078	     43.92340275	      4.18116708	    185.46866257	      0.43700659	     11.40997681	    -12.37388242	     -4.21035795
      2.20338983	     -2.99575625	    -22.17252053	     93.91487507	      0.08175334	      0.89169418	      0.57763718	     32.35049912	     -0.25250997	      6.28934119	     22.27293943	      0.38873613	     36.07941258	     -7.13666901	      0.00000000	     24.32992322	      2.01023853	    -17.10783186	      9.51711486	      0.16610499	     36.48688962	     14.11270227	      0.00000000	      0.76324351	     -0.80169898	      2.52305477	      1.41741952	     -1.06625965	      2.68074569	      1.25393276	     -1.94925091	      2.68074569	      0.87231101	     -1.94925091	      2.20767292	      0.70874792	     -1.63482457	      2.04998200	      0.43611734	     -1.24183173	      1.89229108	      5.45177207	     -9.06897925	     14.03247371	      0.00000000	      0.00000000	     28.44156195	    -14.05271687	    -20.58494150	     34.88491085	    -12.55797689	     41.17675732	     30.35029021	     87.32564071	    -16.23221454	      2.10724280	     44.97255459	      4.63600324	    186.26161578	      0.49336482	     12.08635553	    -12.09809014	     -4.45409655
      2.22033898	     -2.87908621	    -22.64904185	     94.71592083	      0.08136437	      0.89025171	      0.57860852	     32.88560333	     -0.47371223	      6.18121589	     22.52601115	      0.39315306	     35.83682401	     -8.19369880	      0.00000000	     25.09742089	      2.11758713	    -16.96926886	     10.08962026	      0.17609709	     36.63749740	     14.15066436	      0.00000000	      0.78164027	     -0.81796160	      2.35715150	      1.45158414	     -1.08788893	      2.50447347	      1.28415679	     -1.98879184	      2.50447347	      0.89333666	     -1.98879184	      2.06250757	      0.72583115	     -1.66798730	      1.91518560	      0.44662925	     -1.26702252	      1.76786363	      5.58317826	     -9.25294522	     13.10976952	      0.00000000	      0.00000000	     28.44893159	    -13.69429462	    -20.27937674	     36.58558756	    -12.45481046	     44.89558686	     29.04945734	     86.95549533	    -17.30149742	      0.83147428	     46.35217106	      4.81860168	    188.45629537	      0.44759907	     12.87028289	    -10.24524273	     -4.44040155
      2.23728814	     -2.56423933	    -22.88487359	     95.35898828	      0.08072049	      0.88935451	      0.57980922	     33.14787627	     -0.49833807	      5.84788141	     22.70733312	      0.39631773	     35.17219706	     -8.92571732	      0.00000000	     25.54145499	      1.99607953	    -16.80481419	     10.51451410	      0.18351289	     36.57398682	     14.10648450	      0.00000000	      0.78643620	     -0.78388130	      2.20194923	      1.46049067	     -1.04256213	      2.33957105	      1.29203604	     -1.90592899	      2.33957105	      0.89881794	     -1.90592899	      1.92670557	      0.73028466	     -1.59849075	      1.78908375	      0.44936965	     -1.21423213	      1.65146192	      5.61743515	     -8.86742204	     12.24658102	      0.00000000	      0.00000000	     28.45655840	    -12.97768053	    -18.63191430	     38.20364944	    -12.68944954	     48.69315312	     28.68218594	     87.05442583	    -17.95626701	      0.71857884	     47.51357850	      4.81293800	    188.03561282	      0.45605825	     10.31166756	     -9.46511939	     -5.50267328
      2.25423729	     -2.46059220	    -22.87173613	     95.60454658	      0.08066668	      0.88925998	      0.58111265	     33.20470784	     -0.57418061	      5.41621613	     22.92671609	      0.40014668	     34.26448806	     -9.13444418	      0.00000000	     25.59814350	      1.94517872	    -17.03880297	     10.72111603	      0.18711877	     36.10168035	     13.95082843	      0.00000000	      0.74706981	     -0.77834288	      2.17296323	      1.38738334	     -1.03519603	      2.30877343	      1.22736099	     -1.89246288	      2.30877343	      0.85382608	     -1.89246288	      1.90134283	      0.69372902	     -1.58719680	      1.76553262	      0.42687569	     -1.20565312	      1.62972242	      5.33624494	     -8.80477032	     12.08536960	      0.00000000	      0.00000000	     28.45676947	    -12.63449267	    -18.37229575	     38.81106377	    -13.26025787	     49.15841433	     29.76014496	     87.49460312	    -17.94169035	      0.46936705	     48.93463444	      5.07474590	    187.40209679	      0.45000371	      9.52455464	     -9.48871715	     -5.79302467
      2.27118644	     -1.50232070	    -22.54488676	     96.72071395	      0.07878612	      0.88965785	      0.58274190	     32.83019948	     -0.16632967	      4.64751073	     22.85517400	      0.39889804	     33.19798641	    -10.03556065	      0.00000000	     25.68367624	      1.32987614	    -16.43917602	     11.37539333	      0.19853807	     36.17194084	     13.92495510	      0.00000000	      0.71150109	     -0.63284338	      1.93627815	      1.32132867	     -0.84168169	      2.05729554	      1.16892514	     -1.53869539	      2.05729554	      0.81317460	     -1.53869539	      1.69424338	      0.66069991	     -1.29049422	      1.57322600	      0.40655172	     -0.98027439	      1.45220861	      5.08218114	     -7.15885087	     10.76899819	      0.00000000	      0.00000000	     28.45544345	    -11.86736730	    -15.67350040	     40.23883464	    -14.57195381	     52.79047836	     31.72199609	     88.15120923	    -18.56489265	      1.52399220	     50.08780784	      5.00759211	    184.65893453	      0.44849399	      4.82640952	     -9.00339320	     -7.96241944
      2.28813559	     -0.78109840	    -22.04860009	     97.27069205	      0.07769850	      0.89076726	      0.58450628	     32.36863682	      0.26766550	      3.97477058	     22.74322894	      0.39694423	     32.26264774	    -10.16573374	      0.00000000	     25.49628319	      0.73474541	    -16.30877282	     11.82749223	      0.20642868	     36.02436827	     13.80613632	      0.00000000	      0.64113975	     -0.52302353	      1.91256607	      1.19066063	     -0.69562130	      2.03210145	      1.05332849	     -1.27167942	      2.03210145	      0.73275862	     -1.27167942	      1.67349531	      0.59536237	     -1.06654959	      1.55395993	      0.36634725	     -0.81016345	      1.43442455	      4.57959712	     -5.91654680	     10.63711873	      0.00000000	      0.00000000	     28.44230656	    -11.68668124	    -14.78068131	     40.23007235	    -16.40204233	     51.32947098	     35.37183979	     88.48268868	    -18.51357334	      2.49911575	     51.52786948	      5.51110901	    182.67508115	      0.43200511	      3.40145980	     -9.80954157	     -9.25415403
